<?xml version="1.0" encoding="utf-8"?>
<!-- Generator: Adobe Illustrator 21.0.0, SVG Export Plug-In . SVG Version: 6.00 Build 0)  -->
<svg version="1.1" id="Layer_1" xmlns="http://www.w3.org/2000/svg" xmlns:xlink="http://www.w3.org/1999/xlink" x="0px" y="0px"
	 viewBox="0 0 512 219.4" style="enable-background:new 0 0 512 219.4;" xml:space="preserve">
<g>
	<g>
		<path d="M465,0H47C21.1,0,0,21.1,0,47v125.4c0,25.9,21.1,47,47,47h418c25.9,0,47-21.1,47-47V47C512,21.1,490.9,0,465,0z
			 M480.7,172.4c0,8.6-7,15.7-15.7,15.7H47c-8.6,0-15.7-7-15.7-15.7V47c0-8.6,7-15.7,15.7-15.7h418c8.6,0,15.7,7,15.7,15.7V172.4z"
			/>
	</g>
</g>
<g>
	<g>
		<polygon points="309.1,97.2 293.4,70 271.7,82.6 271.7,57.5 240.3,57.5 240.3,82.6 218.6,70 202.9,97.2 224.7,109.7 202.9,122.3 
			218.6,149.4 240.3,136.9 240.3,162 271.7,162 271.7,136.9 293.4,149.4 309.1,122.3 287.3,109.7 		"/>
	</g>
</g>
<g>
	<g>
		<polygon points="448.4,97.2 432.7,70 411,82.6 411,57.5 379.6,57.5 379.6,82.6 357.9,70 342.2,97.2 363.9,109.7 342.2,122.3 
			357.9,149.4 379.6,136.9 379.6,162 411,162 411,136.9 432.7,149.4 448.4,122.3 426.6,109.7 		"/>
	</g>
</g>
<g>
	<g>
		<polygon points="169.8,97.2 154.1,70 132.4,82.6 132.4,57.5 101,57.5 101,82.6 79.3,70 63.6,97.2 85.4,109.7 63.6,122.3 
			79.3,149.4 101,136.9 101,162 132.4,162 132.4,136.9 154.1,149.4 169.8,122.3 148.1,109.7 		"/>
	</g>
</g>
</svg>
